<svg width="320" height="93" viewBox="0 0 320 93" fill="none" xmlns="http://www.w3.org/2000/svg">
<g clip-path="url(#clip0_63_207)">
<path d="M0 11.5749H6.13731L6.67685 14.829H6.86232C8.94462 12.7383 11.2208 10.9595 14.5508 10.9595C18.1169 10.9595 20.275 12.5022 21.5565 15.2337C23.7905 12.9069 26.1763 10.9595 29.5232 10.9595C35.0029 10.9595 37.4646 14.8543 37.4646 21.1939V36.9503H29.9447V22.155C29.9447 18.5047 28.9499 17.3581 26.8086 17.3581C25.5356 17.3581 24.094 18.1506 22.4922 19.8198V36.9419H14.9723V22.155C14.9723 18.5047 13.9776 17.3581 11.8362 17.3581C10.5801 17.3581 9.11323 18.1506 7.51989 19.8198V36.9419H0V11.5749Z" fill="#2E2E2E"/>
<path d="M81.5469 11.5749H87.6842L88.2237 14.829H88.4092C90.4915 12.7383 92.7677 10.9595 96.0977 10.9595C99.6637 10.9595 101.822 12.5022 103.103 15.2337C105.337 12.9069 107.723 10.9595 111.07 10.9595C116.55 10.9595 119.011 14.8543 119.011 21.1939V36.9503H111.492V22.155C111.492 18.5047 110.497 17.3581 108.355 17.3581C107.082 17.3581 105.641 18.1506 104.039 19.8198V36.9419H96.5192V22.155C96.5192 18.5047 95.5244 17.3581 93.3831 17.3581C92.127 17.3581 90.6601 18.1506 89.0668 19.8198V36.9419H81.5469V11.5749Z" fill="#2E2E2E"/>
<path d="M125.157 24.271C125.157 16.0346 131.025 10.9595 137.128 10.9595C144.353 10.9595 147.936 16.2116 147.936 23.1414C147.936 24.4986 147.767 25.8475 147.624 26.4629H132.441C133.115 30.147 135.636 31.8331 139.025 31.8331C140.947 31.8331 142.667 31.2514 144.513 30.1723L147 34.7078C144.395 36.5035 141.006 37.5657 137.997 37.5657C130.763 37.5657 125.166 32.6761 125.166 24.271H125.157ZM141.512 21.489C141.512 18.6986 140.298 16.6921 137.297 16.6921C134.92 16.6921 132.871 18.2855 132.357 21.489H141.512Z" fill="#2E2E2E"/>
<path d="M151.283 24.271C151.283 15.9755 156.468 10.9595 161.804 10.9595C164.603 10.9595 166.314 11.9964 168.026 13.6066L167.756 9.76235V1.11279H175.276V36.9503H169.138L168.599 34.438H168.413C166.618 36.2337 164.106 37.5657 161.661 37.5657C155.355 37.5657 151.283 32.5581 151.283 24.271ZM167.756 29.1353V18.7154C166.424 17.5267 164.932 17.1136 163.558 17.1136C161.121 17.1136 158.988 19.3645 158.988 24.1867C158.988 29.0089 160.708 31.4115 163.625 31.4115C165.227 31.4115 166.517 30.8046 167.764 29.1353H167.756Z" fill="#2E2E2E"/>
<path d="M180.789 3.92855C180.789 1.62706 182.619 0 185.139 0C187.66 0 189.489 1.62706 189.489 3.92855C189.489 6.23004 187.66 7.85711 185.139 7.85711C182.619 7.85711 180.789 6.21318 180.789 3.92855ZM181.371 11.5665H188.891V36.9419H181.371V11.5749V11.5665Z" fill="#2E2E2E"/>
<path d="M193.831 29.9109C193.831 24.5661 198.088 21.666 208.121 20.6122C207.969 18.3951 206.864 16.945 204.108 16.945C201.983 16.945 199.859 17.8387 197.397 19.2381L194.725 14.2979C197.945 12.3336 201.579 10.9595 205.566 10.9595C212.049 10.9595 215.649 14.6688 215.649 22.4416V36.9503H209.512L208.972 34.3538H208.787C206.654 36.2337 204.251 37.5657 201.402 37.5657C196.773 37.5657 193.839 34.1936 193.839 29.9109H193.831ZM208.121 29.5737V25.1394C202.776 25.8644 201.031 27.3903 201.031 29.304C201.031 30.9394 202.16 31.7403 203.939 31.7403C205.718 31.7403 206.78 30.8973 208.112 29.5737H208.121Z" fill="#2E2E2E"/>
<path d="M81.5469 79.2033L84.9274 74.516C87.2289 76.2527 89.3534 77.18 91.4779 77.18C93.7119 77.18 94.6814 76.3286 94.6814 74.9966C94.6814 73.3273 92.1691 72.5686 89.5557 71.5401C86.4449 70.3346 82.8451 68.2691 82.8451 64.0792C82.8451 59.3582 86.681 56.1378 92.5401 56.1378C96.4265 56.1378 99.3181 57.7059 101.485 59.3498L98.121 63.8685C96.3169 62.5533 94.5381 61.7019 92.7761 61.7019C90.8371 61.7019 89.8761 62.4606 89.8761 63.7252C89.8761 65.3438 92.2534 65.9592 94.8837 66.9203C98.0957 68.1089 101.721 69.913 101.721 74.5582C101.721 79.2033 98.0957 82.7441 91.3008 82.7441C87.954 82.7441 84.1266 81.294 81.5553 79.2033H81.5469Z" fill="#2E2E2E"/>
<path d="M105.152 91.5369L106.492 85.8042C106.956 85.9223 107.656 86.133 108.204 86.133C110.682 86.133 111.989 84.7673 112.647 82.803L113.026 81.4795L103.238 56.7532H110.792L114.417 67.6705C115.15 69.972 115.757 72.3747 116.423 74.8616H116.626C117.191 72.459 117.755 70.0563 118.388 67.6705L121.465 56.7532H128.664L119.855 82.4068C117.443 88.7633 114.737 92.0511 108.777 92.0511C107.201 92.0511 106.197 91.8488 105.16 91.5369H105.152Z" fill="#2E2E2E"/>
<path d="M128.824 79.2033L132.205 74.516C134.507 76.2527 136.631 77.18 138.755 77.18C140.989 77.18 141.959 76.3286 141.959 74.9966C141.959 73.3273 139.447 72.5686 136.833 71.5401C133.723 70.3346 130.123 68.2691 130.123 64.0792C130.123 59.3582 133.959 56.1378 139.818 56.1378C143.704 56.1378 146.596 57.7059 148.762 59.3498L145.399 63.8685C143.594 62.5533 141.816 61.7019 140.054 61.7019C138.115 61.7019 137.154 62.4606 137.154 63.7252C137.154 65.3438 139.531 65.9592 142.161 66.9203C145.373 68.1089 148.998 69.913 148.998 74.5582C148.998 79.2033 145.373 82.7441 138.578 82.7441C135.232 82.7441 131.404 81.294 128.833 79.2033H128.824Z" fill="#2E2E2E"/>
<path d="M155.507 72.9058V62.6545H152.042V57.0483L155.928 56.7616L156.805 50.0173H163.027V56.7616H169.113V62.6629H163.027V72.8215C163.027 75.6962 164.333 76.8512 166.314 76.8512C167.149 76.8512 168.059 76.6067 168.725 76.3707L169.914 81.8251C168.565 82.2551 166.736 82.744 164.274 82.744C158.002 82.744 155.515 78.7818 155.515 72.9058H155.507Z" fill="#2E2E2E"/>
<path d="M171.153 69.4494C171.153 61.2213 177.021 56.1378 183.124 56.1378C190.349 56.1378 193.932 61.3899 193.932 68.3197C193.932 69.677 193.764 71.0259 193.62 71.6413H178.437C179.112 75.3253 181.632 77.0114 185.021 77.0114C186.943 77.0114 188.663 76.4297 190.509 75.3506L192.996 79.8862C190.391 81.6818 187.002 82.7441 183.993 82.7441C176.76 82.7441 171.162 77.8545 171.162 69.4494H171.153ZM187.508 66.6674C187.508 63.8769 186.294 61.8705 183.293 61.8705C180.916 61.8705 178.867 63.4638 178.353 66.6674H187.508Z" fill="#2E2E2E"/>
<path d="M198.586 56.7532H204.723L205.263 60.0074H205.448C207.53 57.9166 209.807 56.1378 213.137 56.1378C216.703 56.1378 218.861 57.6806 220.142 60.412C222.376 58.0852 224.762 56.1378 228.109 56.1378C233.589 56.1378 236.05 60.0327 236.05 66.3723V82.1286H228.53V67.3418C228.53 63.6914 227.536 62.5449 225.394 62.5449C224.121 62.5449 222.68 63.3374 221.078 65.0066V82.1286H213.558V67.3418C213.558 63.6914 212.563 62.5449 210.422 62.5449C209.166 62.5449 207.699 63.3374 206.106 65.0066V82.1286H198.586V56.7532Z" fill="#2E2E2E"/>
<path d="M239.658 79.2033L243.039 74.516C245.341 76.2527 247.465 77.18 249.589 77.18C251.823 77.18 252.793 76.3286 252.793 74.9966C252.793 73.3273 250.281 72.5686 247.667 71.5401C244.556 70.3346 240.957 68.2691 240.957 64.0792C240.957 59.3582 244.793 56.1378 250.652 56.1378C254.538 56.1378 257.43 57.7059 259.596 59.3498L256.233 63.8685C254.428 62.5533 252.65 61.7019 250.888 61.7019C248.949 61.7019 247.988 62.4606 247.988 63.7252C247.988 65.3438 250.365 65.9592 252.995 66.9203C256.207 68.1089 259.832 69.913 259.832 74.5582C259.832 79.2033 256.207 82.7441 249.412 82.7441C246.066 82.7441 242.238 81.294 239.667 79.2033H239.658Z" fill="#2E2E2E"/>
<path d="M63.1942 9.93103H60.7915V84.4471H63.1942V9.93103Z" fill="#2E2E2E"/>
<path d="M11.9457 52.7151C7.3596 55.7332 8.75061 62.3342 16.8859 67.738C11.7265 63.565 11.3472 58.4056 15.8068 55.1936C23.0654 49.9668 31.7824 54.9492 33.7382 57.2844C29.776 52.2093 19.6848 47.6232 11.9541 52.7151H11.9457Z" fill="url(#paint0_linear_63_207)"/>
<path d="M11.3051 69.4073C12.1229 70.1408 12.8732 71.2957 12.1229 72.3074C11.4821 73.1673 10.3778 73.4455 8.71698 72.3411C2.77357 68.3957 1.34884 61.272 5.67362 54.9155C4.67883 55.9356 3.77679 57.0737 3.01805 58.3551C2.07385 59.9485 1.40785 61.6261 0.994763 63.3375C-0.252932 69.3146 2.48694 76.1769 7.62103 78.6217C8.4725 79.0264 10.2007 79.6587 10.656 79.7092C10.7234 79.7092 10.7909 79.7177 10.8499 79.7261C12.6287 79.8526 14.1461 78.9252 14.6435 78.2592C15.3938 77.2476 16.3718 73.024 11.2967 69.4073H11.3051Z" fill="url(#paint1_linear_63_207)"/>
<path d="M16.8354 67.7212C8.70857 62.3174 7.51989 55.8175 12.106 52.7995C19.8451 47.7075 29.7171 52.1925 33.6878 57.2676C32.2293 55.1515 30.324 53.3053 27.972 51.9143C24.4818 49.8488 20.587 49.0901 16.8439 49.4863C13.5898 49.8235 10.5042 51.2314 8.08472 53.4317C4.18146 56.9641 3.92012 60.6228 5.61462 63.6999C7.40186 66.9456 9.80452 68.2017 11.263 69.3904C15.8997 73.1588 15.3517 76.6911 14.2979 77.9978C13.6488 78.7987 12.6034 79.8357 10.8162 79.7092C10.7487 79.7092 10.538 79.6839 10.4705 79.6755C13.4043 80.4258 18.1927 80.6787 20.3593 77.3571C21.8262 75.1062 21.6492 71.6245 16.8354 67.7296V67.7212Z" fill="url(#paint2_linear_63_207)"/>
<path d="M25.3164 82.466C29.9025 79.4479 30.4842 73.7237 22.3489 68.3198C27.5083 72.4929 28.0225 78.1496 23.5966 81.4122C15.79 87.1617 5.69047 80.3331 3.73462 77.9979C7.69689 83.073 17.5773 87.5664 25.3164 82.466Z" fill="url(#paint3_linear_63_207)"/>
<path d="M34.4381 76.9188C35.3823 75.3255 36.0483 73.6478 36.4614 71.9365C37.7091 65.9593 34.868 59.5101 29.7592 57.0063C29.3714 56.8124 28.9752 56.6438 28.5621 56.5004C27.9888 56.2728 27.483 56.1464 27.0278 56.0958C26.9603 56.0958 26.8929 56.0874 26.8339 56.0789C25.0551 55.9525 24.1193 56.9894 23.6219 57.6638C22.8716 58.6755 21.5227 62.0982 26.1594 65.875C25.3417 65.1416 24.5914 63.9866 25.3417 62.975C25.9824 62.1151 27.0868 61.8369 28.7476 62.9413C34.691 66.8867 36.1157 74.0103 31.7909 80.3668C32.7857 79.3468 33.6878 78.2087 34.4465 76.9272L34.4381 76.9188Z" fill="url(#paint4_linear_63_207)"/>
<path d="M31.8162 71.5655C30.0289 68.3198 27.6263 67.0637 26.1678 65.875C21.5311 62.0982 22.88 58.6755 23.6303 57.6638C24.1277 56.9978 25.055 55.9609 26.8423 56.0789C26.9097 56.0789 26.9687 56.0789 27.0362 56.0958C23.4448 55.4045 19.8535 56.5173 18.3782 58.7766C16.9113 61.0275 17.5351 64.4165 22.3489 68.3114C30.4758 73.7152 29.9025 79.4395 25.3164 82.4575C17.5773 87.5495 7.70532 83.0645 3.73462 77.9894C5.19307 80.1055 7.09834 81.9517 9.45041 83.3427C12.9406 85.4082 16.8354 86.1669 20.5785 85.7707C23.8326 85.4334 26.9181 84.0256 29.3377 81.8252C33.2409 78.2929 33.5023 74.6341 31.8078 71.5571L31.8162 71.5655Z" fill="url(#paint5_linear_63_207)"/>
<path d="M223.304 18.6901C223.304 16.532 225.091 15.4107 229.23 14.9639C229.197 13.8764 228.758 12.9744 227.401 12.9744C226.398 12.9744 225.453 13.4296 224.568 13.9691L223.7 12.3927C224.804 11.6929 226.237 11.0691 227.839 11.0691C230.36 11.0691 231.599 12.6203 231.599 15.4276V21.3963H229.66L229.475 20.2835H229.407C228.505 21.0591 227.468 21.6492 226.28 21.6492C224.518 21.6492 223.304 20.4521 223.304 18.6901ZM229.23 18.6986V16.4308C226.499 16.7765 225.588 17.493 225.588 18.5047C225.588 19.3983 226.195 19.7861 227.038 19.7861C227.881 19.7861 228.48 19.3814 229.23 18.6986Z" fill="#2E2E2E"/>
<path d="M233.538 16.3717C233.538 13.0923 235.595 11.0775 237.804 11.0775C238.942 11.0775 239.667 11.5074 240.443 12.1818L240.35 10.5548V6.90442H242.71V21.4047H240.771L240.594 20.3171H240.527C239.777 21.0674 238.748 21.6576 237.661 21.6576C235.148 21.6576 233.521 19.7017 233.521 16.3802L233.538 16.3717ZM240.358 18.5636V13.8679C239.667 13.2525 238.984 13.0333 238.31 13.0333C237.028 13.0333 235.974 14.2473 235.974 16.3464C235.974 18.4456 236.809 19.6933 238.268 19.6933C239.052 19.6933 239.701 19.3476 240.367 18.5636H240.358Z" fill="#2E2E2E"/>
<path d="M244.329 11.3219H246.723L248.325 16.5487C248.603 17.5435 248.898 18.5804 249.177 19.5837H249.261C249.539 18.572 249.834 17.5435 250.112 16.5487L251.714 11.3219H253.999L250.576 21.3962H247.845L244.329 11.3219Z" fill="#2E2E2E"/>
<path d="M254.749 16.3718C254.749 13.1008 257.025 11.0775 259.394 11.0775C262.117 11.0775 263.559 13.0502 263.559 15.866C263.559 16.3128 263.508 16.768 263.458 17.0125H257.059C257.253 18.7997 258.408 19.8198 260.026 19.8198C260.886 19.8198 261.628 19.55 262.37 19.0864L263.171 20.5532C262.21 21.2024 260.996 21.6408 259.715 21.6408C256.933 21.6408 254.749 19.6849 254.749 16.3634V16.3718ZM261.51 15.4023C261.51 13.8511 260.819 12.9069 259.445 12.9069C258.273 12.9069 257.236 13.7837 257.034 15.4023H261.519H261.51Z" fill="#2E2E2E"/>
<path d="M265.607 11.322H267.546L267.723 13.1177H267.791C268.507 11.8025 269.578 11.0775 270.657 11.0775C271.171 11.0775 271.492 11.145 271.795 11.2798L271.382 13.3284C271.028 13.2273 270.767 13.1682 270.345 13.1682C269.544 13.1682 268.575 13.7162 267.968 15.2505V21.3963H265.607V11.322Z" fill="#2E2E2E"/>
<path d="M274.046 18.0072V13.2019H272.613V11.4315L274.173 11.3219L274.451 8.57361H276.415V11.3219H278.986V13.2019H276.415V17.9988C276.415 19.1874 276.87 19.7691 277.84 19.7691C278.186 19.7691 278.599 19.6511 278.894 19.5415L279.298 21.2782C278.75 21.4552 278.051 21.6491 277.241 21.6491C274.915 21.6491 274.055 20.1822 274.055 18.0072H274.046Z" fill="#2E2E2E"/>
<path d="M280.613 8.21958C280.613 7.42712 281.237 6.87915 282.072 6.87915C282.906 6.87915 283.53 7.41869 283.53 8.21958C283.53 9.02046 282.906 9.56001 282.072 9.56001C281.237 9.56001 280.613 9.0036 280.613 8.21958ZM280.883 11.322H283.244V21.3962H280.883V11.322Z" fill="#2E2E2E"/>
<path d="M285.048 20.2413L286.144 18.7407C287.037 19.4404 287.906 19.862 288.926 19.862C290.03 19.862 290.544 19.3477 290.544 18.6564C290.544 17.8134 289.457 17.434 288.378 17.0209C287.054 16.5235 285.545 15.7648 285.545 14.0787C285.545 12.3927 286.953 11.0691 289.212 11.0691C290.612 11.0691 291.742 11.6424 292.559 12.2746L291.48 13.7247C290.772 13.2104 290.064 12.8479 289.271 12.8479C288.26 12.8479 287.779 13.3284 287.779 13.9607C287.779 14.7532 288.799 15.0567 289.887 15.4613C291.253 15.9671 292.779 16.6247 292.779 18.5047C292.779 20.2329 291.404 21.6323 288.867 21.6323C287.484 21.6323 286.034 21.0422 285.048 20.2329V20.2413Z" fill="#2E2E2E"/>
<path d="M294.414 8.21958C294.414 7.42712 295.038 6.87915 295.872 6.87915C296.707 6.87915 297.331 7.41869 297.331 8.21958C297.331 9.02046 296.707 9.56001 295.872 9.56001C295.038 9.56001 294.414 9.0036 294.414 8.21958ZM294.684 11.322H297.044V21.3962H294.684V11.322Z" fill="#2E2E2E"/>
<path d="M299.852 11.322H301.791L301.968 12.6877H302.035C302.937 11.811 303.966 11.0775 305.34 11.0775C307.498 11.0775 308.442 12.536 308.442 15.0819V21.4047H306.082V15.3854C306.082 13.7247 305.61 13.1008 304.514 13.1008C303.628 13.1008 303.047 13.5392 302.212 14.3569V21.3963H299.852V11.322Z" fill="#2E2E2E"/>
<path d="M310.432 23.2341C310.432 22.3826 310.954 21.6408 311.882 21.0844V21.0001C311.367 20.6628 310.971 20.1317 310.971 19.314C310.971 18.4962 311.502 17.8471 312.084 17.434V17.3497C311.393 16.8439 310.752 15.8828 310.752 14.6941C310.752 12.3758 312.624 11.0775 314.731 11.0775C315.288 11.0775 315.819 11.1787 316.223 11.322H319.823V13.0755H317.985C318.314 13.4549 318.559 14.0787 318.559 14.77C318.559 17.0125 316.864 18.2096 314.723 18.2096C314.293 18.2096 313.812 18.1169 313.357 17.9398C313.054 18.2012 312.86 18.4541 312.86 18.9009C312.86 19.4657 313.273 19.8114 314.495 19.8114H316.291C318.702 19.8114 319.983 20.5533 319.983 22.2983C319.983 24.2879 317.901 25.856 314.605 25.856C312.202 25.856 310.415 24.9961 310.415 23.2257L310.432 23.2341ZM317.715 22.6946C317.715 21.9105 317.092 21.6829 315.937 21.6829H314.554C314.015 21.6829 313.576 21.6408 313.188 21.5396C312.649 21.9527 312.404 22.3995 312.404 22.8716C312.404 23.7905 313.391 24.3216 314.976 24.3216C316.561 24.3216 317.707 23.5545 317.707 22.6861L317.715 22.6946ZM316.485 14.7026C316.485 13.438 315.718 12.713 314.74 12.713C313.762 12.713 312.994 13.4296 312.994 14.7026C312.994 15.9756 313.77 16.7259 314.74 16.7259C315.709 16.7259 316.485 15.9756 316.485 14.7026Z" fill="#2E2E2E"/>
<path d="M223.304 33.9491C223.304 31.7909 225.091 30.6696 229.23 30.2228C229.197 29.1353 228.758 28.2333 227.401 28.2333C226.398 28.2333 225.453 28.6885 224.568 29.228L223.7 27.6516C224.804 26.9519 226.237 26.328 227.839 26.328C230.36 26.328 231.599 27.8792 231.599 30.6865V36.6552H229.66L229.475 35.5424H229.407C228.505 36.318 227.468 36.9081 226.28 36.9081C224.518 36.9081 223.304 35.711 223.304 33.9491ZM229.23 33.9575V31.6897C226.499 32.0354 225.588 32.7519 225.588 33.7636C225.588 34.6572 226.195 35.045 227.038 35.045C227.881 35.045 228.48 34.6403 229.23 33.9575Z" fill="#2E2E2E"/>
<path d="M233.538 38.4846C233.538 37.6331 234.061 36.8913 234.988 36.3349V36.2505C234.474 35.9133 234.078 35.3822 234.078 34.5645C234.078 33.7467 234.609 33.0976 235.19 32.6845V32.6002C234.499 32.0944 233.858 31.1333 233.858 29.9446C233.858 27.6263 235.73 26.328 237.838 26.328C238.394 26.328 238.925 26.4292 239.33 26.5725H242.93V28.326H241.092C241.421 28.7054 241.665 29.3292 241.665 30.0205C241.665 32.263 239.97 33.4601 237.829 33.4601C237.399 33.4601 236.919 33.3674 236.463 33.1903C236.16 33.4517 235.966 33.7046 235.966 34.1514C235.966 34.7162 236.379 35.0619 237.602 35.0619H239.397C241.808 35.0619 243.09 35.8037 243.09 37.5488C243.09 39.5384 241.007 41.1064 237.711 41.1064C235.308 41.1064 233.521 40.2465 233.521 38.4762L233.538 38.4846ZM240.822 37.9451C240.822 37.161 240.198 36.9334 239.043 36.9334H237.661C237.121 36.9334 236.683 36.8913 236.295 36.7901C235.755 37.2032 235.511 37.65 235.511 38.1221C235.511 39.041 236.497 39.5721 238.082 39.5721C239.667 39.5721 240.814 38.805 240.814 37.9366L240.822 37.9451ZM239.591 29.9531C239.591 28.6885 238.824 27.9635 237.846 27.9635C236.868 27.9635 236.101 28.6801 236.101 29.9531C236.101 31.226 236.877 31.9764 237.846 31.9764C238.816 31.9764 239.591 31.226 239.591 29.9531Z" fill="#2E2E2E"/>
<path d="M243.688 31.6223C243.688 28.3513 245.964 26.328 248.333 26.328C251.056 26.328 252.498 28.3007 252.498 31.1165C252.498 31.5633 252.447 32.0185 252.397 32.263H245.998C246.192 34.0502 247.347 35.0703 248.966 35.0703C249.826 35.0703 250.567 34.8005 251.309 34.3369L252.11 35.8037C251.149 36.4529 249.935 36.8913 248.654 36.8913C245.872 36.8913 243.688 34.9354 243.688 31.6138V31.6223ZM250.449 30.6528C250.449 29.1016 249.758 28.1574 248.384 28.1574C247.212 28.1574 246.175 29.0342 245.973 30.6528H250.458H250.449Z" fill="#2E2E2E"/>
<path d="M254.538 26.5809H256.477L256.654 27.9466H256.722C257.624 27.0699 258.652 26.3364 260.027 26.3364C262.185 26.3364 263.129 27.7949 263.129 30.3409V36.6636H260.768V30.6443C260.768 28.9836 260.296 28.3597 259.2 28.3597C258.315 28.3597 257.733 28.7981 256.899 29.6158V36.6552H254.538V26.5809Z" fill="#2E2E2E"/>
<path d="M265.144 31.6223C265.144 28.267 267.512 26.328 270.202 26.328C271.483 26.328 272.419 26.8254 273.152 27.4577L272.006 28.992C271.475 28.5199 270.961 28.2501 270.328 28.2501C268.701 28.2501 267.58 29.599 267.58 31.6138C267.58 33.6287 268.684 34.9607 270.252 34.9607C271.036 34.9607 271.761 34.5729 272.335 34.0924L273.296 35.652C272.352 36.4866 271.154 36.8913 270.008 36.8913C267.26 36.8913 265.152 34.9523 265.152 31.6138L265.144 31.6223Z" fill="#2E2E2E"/>
<path d="M274.51 40.5838L274.948 38.7544C275.142 38.8134 275.429 38.8977 275.673 38.8977C276.735 38.8977 277.351 38.1727 277.688 37.1611L277.873 36.5288L273.911 26.5725H276.305L278.042 31.5127C278.346 32.4063 278.632 33.4011 278.927 34.3622H279.011C279.264 33.4264 279.517 32.4316 279.779 31.5127L281.279 26.5725H283.564L279.922 37.1105C279.087 39.3782 278.025 40.7861 275.825 40.7861C275.277 40.7861 274.881 40.7018 274.51 40.5838Z" fill="#2E2E2E"/>
</g>
<defs>
<linearGradient id="paint0_linear_63_207" x1="10.8421" y1="53.3379" x2="29.5384" y2="64.386" gradientUnits="userSpaceOnUse">
<stop offset="0.07" stop-color="#A50E13"/>
<stop offset="1" stop-color="#F27721"/>
</linearGradient>
<linearGradient id="paint1_linear_63_207" x1="17.6179" y1="73.2739" x2="0.278798" y2="63.0278" gradientUnits="userSpaceOnUse">
<stop offset="0.07" stop-color="#A50E13"/>
<stop offset="1" stop-color="#F27721"/>
</linearGradient>
<linearGradient id="paint2_linear_63_207" x1="19.245" y1="49.3923" x2="18.9351" y2="80.192" gradientUnits="userSpaceOnUse">
<stop offset="0.11" stop-color="#F79E1B"/>
<stop offset="0.33" stop-color="#F79E1B"/>
<stop offset="0.45" stop-color="#F3951B"/>
<stop offset="0.65" stop-color="#E97F1C"/>
<stop offset="0.78" stop-color="#E16C1E"/>
</linearGradient>
<linearGradient id="paint3_linear_63_207" x1="26.6957" y1="81.8404" x2="7.99221" y2="70.7879" gradientUnits="userSpaceOnUse">
<stop offset="0.07" stop-color="#A50E13"/>
<stop offset="0.68" stop-color="#F27721"/>
</linearGradient>
<linearGradient id="paint4_linear_63_207" x1="20.6482" y1="62.6774" x2="37.1091" y2="72.4045" gradientUnits="userSpaceOnUse">
<stop offset="0.07" stop-color="#A50E13"/>
<stop offset="1" stop-color="#F27721"/>
</linearGradient>
<linearGradient id="paint5_linear_63_207" x1="11.1145" y1="65.5042" x2="32.3002" y2="78.0234" gradientUnits="userSpaceOnUse">
<stop stop-color="#F79E1B"/>
<stop offset="0.24" stop-color="#F3951B"/>
<stop offset="0.62" stop-color="#EA7F1D"/>
<stop offset="0.91" stop-color="#E16A1F"/>
</linearGradient>
<clipPath id="clip0_63_207">
<rect width="320" height="92.0512" fill="white"/>
</clipPath>
</defs>
</svg>
